<svg width="51" height="177" viewBox="0 0 51 177" fill="none" xmlns="http://www.w3.org/2000/svg">
<path d="M0.660889 50.4755V-2.28882e-05L12.3036 4.04655V38.8328H19.6158V7.09921L31.3296 11.2168L31.4006 36.0641L25.5792 38.8328H38.6418V0.851891L50.3555 4.89845V50.4755H0.660889Z" fill="black"/>
<path d="M31.1876 60.9695L31.2586 66.4359L50.1425 56.4969V69.2046L31.2586 79.4275L31.3296 89.9343L25.5082 92.703H39.8132L50.1425 104.346H0.660889V60.9695L7.68913 56.284H24.7983L31.1876 60.9695ZM12.3004 92.703H19.5416V67.9267H12.3004V92.703Z" fill="black"/>
<path d="M50.2845 123.133H0.660889V111.49H50.2845V123.133Z" fill="black"/>
<path d="M0.660889 177V126.524L12.3036 130.571V165.357H19.6158V133.624L31.3296 137.741L31.4006 162.589L25.5792 165.357H41.2749L50.2845 177H0.660889Z" fill="black"/>
</svg>
