<svg width="35" height="39" viewBox="0 0 35 39" fill="none" xmlns="http://www.w3.org/2000/svg">
<path d="M17.8584 38.3719C14.508 38.3719 11.5033 37.6572 8.82912 36.2202C6.1549 34.7832 4.04933 32.67 2.50474 29.8651C0.960149 27.0603 0.191711 23.5715 0.191711 19.3988C0.191711 15.2261 0.952458 11.6605 2.474 8.83255C3.99553 6.00464 6.11648 3.8914 8.82912 2.47745C11.5494 1.06349 14.6463 0.356506 18.1197 0.356506C20.986 0.356506 23.5296 0.879061 25.7505 1.92416C27.9713 2.96925 29.8232 4.47542 31.3294 6.45803C32.8279 8.43295 33.8423 10.8613 34.3648 13.7276H31.2987C30.8607 11.4222 30.0307 9.47804 28.7858 7.88734C27.5486 6.30433 26.0271 5.10555 24.2212 4.29868C22.4153 3.4918 20.3867 3.0922 18.1274 3.0922C13.5167 3.0922 9.88189 4.48309 7.20767 7.26489C4.53345 10.0467 3.19634 14.0504 3.19634 19.2605C3.19634 24.4706 4.5104 28.7278 7.13851 31.4866C9.76662 34.2453 13.3476 35.6285 17.8661 35.6285C20.3406 35.6285 22.5383 35.2136 24.4518 34.3913C26.3652 33.5691 27.9175 32.3703 29.1163 30.8026C30.3151 29.235 31.1066 27.3215 31.4985 25.0623H34.6952C34.1727 27.8902 33.1737 30.2878 31.6983 32.2704C30.2229 34.253 28.3171 35.7591 25.9887 36.8042C23.6603 37.8493 20.9553 38.3719 17.8661 38.3719H17.8584Z" fill="white"/>
</svg>
