<svg width="26" height="37" viewBox="0 0 26 37" fill="none" xmlns="http://www.w3.org/2000/svg">
<path d="M3.20918 36.7187H0.273682V0.00195312H3.20918V36.7187ZM2.68664 0.00195312H13.8369C17.8329 0.00195312 20.8606 0.947153 22.9046 2.83755C24.9487 4.72794 25.9708 7.58659 25.9708 11.4135C25.9708 14.9791 24.918 17.7302 22.8047 19.659C20.6992 21.5955 17.7099 22.5638 13.8369 22.5638H2.61746V20.0202H13.5756C16.7032 20.0202 19.0931 19.3055 20.7453 17.8685C22.3975 16.4315 23.2197 14.2568 23.2197 11.3443C23.2197 8.43189 22.4128 6.19569 20.8067 4.75868C19.2007 3.32167 16.7877 2.60702 13.5679 2.60702H2.67894V0.00195312H2.68664Z" fill="white"/>
</svg>
