<svg width="36" height="39" viewBox="0 0 36 39" fill="none" xmlns="http://www.w3.org/2000/svg">
<path d="M17.8098 38.6255C12.0694 38.6255 7.7046 36.8964 4.69995 33.4384C1.70298 29.9804 0.196777 25.3235 0.196777 19.4526C0.196777 15.5872 0.85 12.2291 2.15637 9.37812C3.46274 6.52716 5.41458 4.31401 8.02732 2.72331C10.6324 1.1403 13.8983 0.341125 17.8098 0.341125C23.5501 0.341125 27.9072 2.07015 30.8811 5.52819C33.855 8.98623 35.3459 13.6277 35.3459 19.4526C35.3459 23.2333 34.685 26.5684 33.3556 29.4655C32.0261 32.3549 30.0743 34.6065 27.4846 36.2125C24.8949 37.8186 21.6674 38.6255 17.8021 38.6255H17.8098ZM17.8098 35.8283C21.068 35.8283 23.773 35.1444 25.9323 33.7765C28.084 32.4087 29.7131 30.4952 30.8197 28.0362C31.9262 25.5771 32.4795 22.7185 32.4795 19.4602C32.4795 16.202 31.9493 13.2896 30.8811 10.8536C29.813 8.41756 28.1839 6.52717 25.9938 5.18237C23.796 3.83758 21.068 3.16134 17.8098 3.16134C12.9839 3.16134 9.33371 4.59835 6.85161 7.46468C4.37719 10.331 3.13228 14.3346 3.13228 19.4602C3.13228 22.68 3.65485 25.5156 4.69995 27.967C5.74505 30.4261 7.35876 32.3472 9.55653 33.7381C11.7543 35.129 14.5054 35.8283 17.8021 35.8283H17.8098Z" fill="white"/>
</svg>
